<svg width="68" height="55" viewBox="0 0 68 55" fill="none" xmlns="http://www.w3.org/2000/svg">
<path d="M46.928 18.16V20.16C48.0326 20.16 48.928 19.2646 48.928 18.16H46.928ZM21.072 31.088V33.088C22.1766 33.088 23.072 32.1926 23.072 31.088H21.072ZM16.4058 31.088V29.088C16.1646 29.088 15.9254 29.1316 15.6997 29.2168L16.4058 31.088ZM2.48804 36.34L0.594274 35.6968C0.34547 36.4294 0.541516 37.2398 1.09766 37.7777C1.65381 38.3155 2.47029 38.4844 3.19415 38.2112L2.48804 36.34ZM6.71143 23.9045L8.60519 24.5476C8.71939 24.2114 8.742 23.8508 8.6707 23.5029L6.71143 23.9045ZM15.528 0C9.45291 0 4.52804 4.92486 4.52804 11H8.52804C8.52804 7.134 11.662 4 15.528 4V0ZM37.928 0H15.528V4H37.928V0ZM48.928 11C48.928 4.92487 44.0032 0 37.928 0V4C41.794 4 44.928 7.134 44.928 11H48.928ZM48.928 18.16V11H44.928V18.16H48.928ZM30.072 20.16H46.928V16.16H30.072V20.16ZM23.072 27.16C23.072 23.294 26.206 20.16 30.072 20.16V16.16C23.9969 16.16 19.072 21.0849 19.072 27.16H23.072ZM23.072 31.088V27.16H19.072V31.088H23.072ZM16.4058 33.088H21.072V29.088H16.4058V33.088ZM3.19415 38.2112L17.112 32.9592L15.6997 29.2168L1.78192 34.4688L3.19415 38.2112ZM4.81766 23.2613L0.594274 35.6968L4.3818 36.9832L8.60519 24.5476L4.81766 23.2613ZM4.52804 22.088C4.52804 22.8459 4.60499 23.5879 4.75215 24.306L8.6707 23.5029C8.57739 23.0476 8.52804 22.5746 8.52804 22.088H4.52804ZM4.52804 11V22.088H8.52804V11H4.52804Z" fill="black"/>
<path d="M61.2886 40.0646L59.3949 40.7078C59.2807 40.3715 59.2581 40.011 59.3294 39.6631L61.2886 40.0646ZM65.512 52.5002L67.4058 51.857C67.6546 52.5896 67.4586 53.4 66.9024 53.9378C66.3463 54.4757 65.5298 54.6445 64.8059 54.3714L65.512 52.5002ZM51.5942 47.2482V45.2482C51.8354 45.2482 52.0747 45.2918 52.3003 45.377L51.5942 47.2482ZM59.472 27.1602C59.472 23.2942 56.338 20.1602 52.472 20.1602V16.1602C58.5472 16.1602 63.472 21.085 63.472 27.1602H59.472ZM59.472 38.2482V27.1602H63.472V38.2482H59.472ZM59.3294 39.6631C59.4227 39.2078 59.472 38.7348 59.472 38.2482H63.472C63.472 39.0061 63.3951 39.7481 63.2479 40.4662L59.3294 39.6631ZM63.6183 53.1433L59.3949 40.7078L63.1824 39.4215L67.4058 51.857L63.6183 53.1433ZM52.3003 45.377L66.2182 50.629L64.8059 54.3714L50.8881 49.1194L52.3003 45.377ZM30.072 45.2482H51.5942V49.2482H30.072V45.2482ZM23.072 38.2482C23.072 42.1142 26.206 45.2482 30.072 45.2482V49.2482C23.9969 49.2482 19.072 44.3233 19.072 38.2482H23.072ZM23.072 27.1602V38.2482H19.072V27.1602H23.072ZM30.072 20.1602C26.206 20.1602 23.072 23.2942 23.072 27.1602H19.072C19.072 21.085 23.9969 16.1602 30.072 16.1602V20.1602ZM52.472 20.1602H30.072V16.1602H52.472V20.1602Z" fill="black"/>
<circle cx="34" cy="32.7038" r="2.424" fill="black"/>
<circle cx="41.2721" cy="32.7038" r="2.424" fill="black"/>
<circle cx="48.5441" cy="32.7038" r="2.424" fill="black"/>
</svg>
