<svg width="284" height="284" viewBox="0 0 284 284" fill="none" xmlns="http://www.w3.org/2000/svg">
<path d="M120.912 135.757C122.565 135.757 124.069 136.09 125.426 136.756C126.783 137.422 127.856 138.372 128.645 139.605C129.434 140.814 129.829 142.22 129.829 143.823C129.829 145.55 129.397 147.067 128.534 148.374C127.671 149.681 126.487 150.693 124.982 151.408C123.502 152.099 121.849 152.444 120.024 152.444C116.398 152.444 113.561 151.334 111.514 149.114C109.467 146.894 108.443 143.724 108.443 139.605C108.443 136.67 108.998 134.154 110.108 132.057C111.218 129.96 112.76 128.369 114.733 127.284C116.731 126.199 119.037 125.656 121.652 125.656C123.033 125.656 124.353 125.816 125.611 126.137C126.894 126.433 127.979 126.865 128.867 127.432L126.647 131.835C125.364 130.972 123.749 130.54 121.8 130.54C119.605 130.54 117.866 131.181 116.583 132.464C115.3 133.747 114.61 135.609 114.511 138.051C116.04 136.522 118.174 135.757 120.912 135.757ZM119.691 147.967C120.974 147.967 122.01 147.622 122.799 146.931C123.613 146.24 124.02 145.303 124.02 144.119C124.02 142.935 123.613 141.998 122.799 141.307C122.01 140.592 120.949 140.234 119.617 140.234C118.31 140.234 117.237 140.604 116.398 141.344C115.559 142.059 115.14 142.984 115.14 144.119C115.14 145.254 115.547 146.179 116.361 146.894C117.175 147.609 118.285 147.967 119.691 147.967ZM152.133 126.1V129.985L142.513 152H136.001L145.288 130.984H136.704V135.202H131.376V126.1H152.133ZM161.012 140.086C159.113 140.086 157.559 139.445 156.35 138.162C155.166 136.855 154.574 135.116 154.574 132.945C154.574 130.774 155.166 129.048 156.35 127.765C157.559 126.458 159.113 125.804 161.012 125.804C162.912 125.804 164.453 126.458 165.637 127.765C166.821 129.048 167.413 130.774 167.413 132.945C167.413 135.116 166.821 136.855 165.637 138.162C164.453 139.445 162.912 140.086 161.012 140.086ZM176.441 126.1H180.844L163.158 152H158.755L176.441 126.1ZM161.012 137.052C161.851 137.052 162.505 136.707 162.973 136.016C163.467 135.325 163.713 134.302 163.713 132.945C163.713 131.588 163.467 130.565 162.973 129.874C162.505 129.183 161.851 128.838 161.012 128.838C160.198 128.838 159.545 129.196 159.051 129.911C158.558 130.602 158.311 131.613 158.311 132.945C158.311 134.277 158.558 135.301 159.051 136.016C159.545 136.707 160.198 137.052 161.012 137.052ZM178.587 152.296C177.354 152.296 176.244 152.012 175.257 151.445C174.295 150.853 173.543 150.014 173 148.929C172.458 147.844 172.186 146.586 172.186 145.155C172.186 143.724 172.458 142.466 173 141.381C173.543 140.296 174.295 139.469 175.257 138.902C176.244 138.31 177.354 138.014 178.587 138.014C180.487 138.014 182.028 138.668 183.212 139.975C184.421 141.258 185.025 142.984 185.025 145.155C185.025 147.326 184.421 149.065 183.212 150.372C182.028 151.655 180.487 152.296 178.587 152.296ZM178.587 149.262C179.426 149.262 180.08 148.917 180.548 148.226C181.042 147.511 181.288 146.487 181.288 145.155C181.288 143.823 181.042 142.812 180.548 142.121C180.08 141.406 179.426 141.048 178.587 141.048C177.773 141.048 177.12 141.393 176.626 142.084C176.133 142.775 175.886 143.798 175.886 145.155C175.886 146.512 176.133 147.535 176.626 148.226C177.12 148.917 177.773 149.262 178.587 149.262Z" fill="black"/>
<path d="M112.404 157.2C113.272 157.2 114.023 157.345 114.658 157.634C115.302 157.923 115.797 158.334 116.142 158.866C116.487 159.398 116.66 160.028 116.66 160.756C116.66 161.475 116.487 162.105 116.142 162.646C115.797 163.178 115.302 163.589 114.658 163.878C114.023 164.158 113.272 164.298 112.404 164.298H110.43V167H108.162V157.2H112.404ZM112.278 162.45C112.959 162.45 113.477 162.305 113.832 162.016C114.187 161.717 114.364 161.297 114.364 160.756C114.364 160.205 114.187 159.785 113.832 159.496C113.477 159.197 112.959 159.048 112.278 159.048H110.43V162.45H112.278ZM123.162 167.168C122.145 167.168 121.225 166.949 120.404 166.51C119.592 166.071 118.953 165.469 118.486 164.704C118.029 163.929 117.8 163.061 117.8 162.1C117.8 161.139 118.029 160.275 118.486 159.51C118.953 158.735 119.592 158.129 120.404 157.69C121.225 157.251 122.145 157.032 123.162 157.032C124.179 157.032 125.094 157.251 125.906 157.69C126.718 158.129 127.357 158.735 127.824 159.51C128.291 160.275 128.524 161.139 128.524 162.1C128.524 163.061 128.291 163.929 127.824 164.704C127.357 165.469 126.718 166.071 125.906 166.51C125.094 166.949 124.179 167.168 123.162 167.168ZM123.162 165.236C123.741 165.236 124.263 165.105 124.73 164.844C125.197 164.573 125.561 164.2 125.822 163.724C126.093 163.248 126.228 162.707 126.228 162.1C126.228 161.493 126.093 160.952 125.822 160.476C125.561 160 125.197 159.631 124.73 159.37C124.263 159.099 123.741 158.964 123.162 158.964C122.583 158.964 122.061 159.099 121.594 159.37C121.127 159.631 120.759 160 120.488 160.476C120.227 160.952 120.096 161.493 120.096 162.1C120.096 162.707 120.227 163.248 120.488 163.724C120.759 164.2 121.127 164.573 121.594 164.844C122.061 165.105 122.583 165.236 123.162 165.236ZM133.448 167.168C132.674 167.168 131.922 167.065 131.194 166.86C130.476 166.645 129.897 166.37 129.458 166.034L130.228 164.326C130.648 164.634 131.148 164.881 131.726 165.068C132.305 165.255 132.884 165.348 133.462 165.348C134.106 165.348 134.582 165.255 134.89 165.068C135.198 164.872 135.352 164.615 135.352 164.298C135.352 164.065 135.259 163.873 135.072 163.724C134.895 163.565 134.662 163.439 134.372 163.346C134.092 163.253 133.71 163.15 133.224 163.038C132.478 162.861 131.866 162.683 131.39 162.506C130.914 162.329 130.504 162.044 130.158 161.652C129.822 161.26 129.654 160.737 129.654 160.084C129.654 159.515 129.808 159.001 130.116 158.544C130.424 158.077 130.886 157.709 131.502 157.438C132.128 157.167 132.888 157.032 133.784 157.032C134.41 157.032 135.021 157.107 135.618 157.256C136.216 157.405 136.738 157.62 137.186 157.9L136.486 159.622C135.581 159.109 134.676 158.852 133.77 158.852C133.136 158.852 132.664 158.955 132.356 159.16C132.058 159.365 131.908 159.636 131.908 159.972C131.908 160.308 132.081 160.56 132.426 160.728C132.781 160.887 133.318 161.045 134.036 161.204C134.783 161.381 135.394 161.559 135.87 161.736C136.346 161.913 136.752 162.193 137.088 162.576C137.434 162.959 137.606 163.477 137.606 164.13C137.606 164.69 137.448 165.203 137.13 165.67C136.822 166.127 136.356 166.491 135.73 166.762C135.105 167.033 134.344 167.168 133.448 167.168ZM139.156 157.2H141.424V167H139.156V157.2ZM145.78 159.048H142.644V157.2H151.184V159.048H148.048V167H145.78V159.048ZM152.404 157.2H154.672V167H152.404V157.2ZM166.365 157.2L162.123 167H159.883L155.655 157.2H158.105L161.087 164.2L164.111 157.2H166.365ZM174.771 165.18V167H167.183V157.2H174.589V159.02H169.437V161.148H173.987V162.912H169.437V165.18H174.771Z" fill="#88A83B"/>
<g filter="url(#filter0_i_50_92)">
<path fill-rule="evenodd" clip-rule="evenodd" d="M236.444 142C236.446 141.78 236.447 141.56 236.447 141.339C236.447 131.757 235.009 122.51 232.339 113.802L277.681 99.9834C281.788 113.261 284 127.372 284 142H236.444Z" fill="#F9475F"/>
<path fill-rule="evenodd" clip-rule="evenodd" d="M278.666 103.31L233.16 116.64C232.901 115.688 232.627 114.742 232.339 113.802L277.681 99.9834C278.023 101.087 278.351 102.195 278.666 103.31Z" fill="#8A0000"/>
<path fill-rule="evenodd" clip-rule="evenodd" d="M278.665 103.31L233.16 116.64C232.901 115.688 232.627 114.742 232.339 113.802L277.681 99.9834C278.022 101.087 278.351 102.195 278.665 103.31Z" fill="#8E0205"/>
<path fill-rule="evenodd" clip-rule="evenodd" d="M284 142C284 220.424 220.424 284 142 284C63.5756 284 0 220.424 0 142C0 87.2088 31.0319 39.6655 76.479 15.9868L98.0176 58.8397C68.7487 74.7114 48.8744 105.704 48.8744 141.339C48.8744 193.136 90.8639 235.125 142.66 235.125C194.237 235.125 236.089 193.493 236.444 142H284Z" fill="#D1E375"/>
<path fill-rule="evenodd" clip-rule="evenodd" d="M277.681 99.9837L232.339 113.802C220.574 75.4436 184.874 47.5535 142.661 47.5535C133.958 47.5535 125.532 48.7388 117.536 50.9568L106.181 4.55614C117.624 1.58249 129.627 0 142 0C205.797 0 259.768 42.0716 277.681 99.9837ZM106.181 4.55603L117.536 50.9568C110.666 52.8624 104.113 55.5303 97.9739 58.8637L76.412 16.0218C85.7714 11.139 95.7428 7.26869 106.181 4.55603Z" fill="#DBEAE6"/>
<path d="M117.536 50.957L106.181 4.55615C95.743 7.26881 85.7715 11.1392 76.4121 16.0219L97.974 58.8638C104.113 55.5304 110.666 52.8626 117.536 50.957Z" fill="#88A83B"/>
</g>
<defs>
<filter id="filter0_i_50_92" x="0" y="0" width="284" height="284" filterUnits="userSpaceOnUse" color-interpolation-filters="sRGB">
<feFlood flood-opacity="0" result="BackgroundImageFix"/>
<feBlend mode="normal" in="SourceGraphic" in2="BackgroundImageFix" result="shape"/>
<feColorMatrix in="SourceAlpha" type="matrix" values="0 0 0 0 0 0 0 0 0 0 0 0 0 0 0 0 0 0 127 0" result="hardAlpha"/>
<feOffset/>
<feGaussianBlur stdDeviation="5.5"/>
<feComposite in2="hardAlpha" operator="arithmetic" k2="-1" k3="1"/>
<feColorMatrix type="matrix" values="0 0 0 0 0 0 0 0 0 0 0 0 0 0 0 0 0 0 0.16 0"/>
<feBlend mode="normal" in2="shape" result="effect1_innerShadow_50_92"/>
</filter>
</defs>
</svg>
