<svg width="26" height="23" viewBox="0 0 26 23" fill="none" xmlns="http://www.w3.org/2000/svg">
<path d="M1 22V20C1 18.3431 2.34315 17 4 17H13C14.6569 17 16 18.3431 16 20V22" stroke="black" stroke-width="1.5" stroke-linecap="round"/>
<circle cx="8.5" cy="9.5" r="3.75" stroke="black" stroke-width="1.5" stroke-linecap="round"/>
<g clip-path="url(#clip0_50_143)">
<path d="M25.1526 5.00635H16.8474C16.3812 5.00635 16 5.42611 16 5.93875V13.0883C16 13.6012 16.3815 14.0207 16.8474 14.0207H25.1526C25.6188 14.0207 26 13.6009 26 13.0883V5.93875C26 5.42584 25.6185 5.00635 25.1526 5.00635ZM22.6872 11.941H19.4806V11.3461L21.2083 9.5409C21.4029 9.33578 21.5346 9.15682 21.6029 9.00401C21.6713 8.85119 21.7054 8.69974 21.7054 8.54938C21.7054 8.32602 21.6371 8.15523 21.5004 8.03646C21.3638 7.91797 21.1628 7.85859 20.8976 7.85859C20.4543 7.85859 20.1146 8.02502 19.8784 8.35789L19.313 7.87929C19.4829 7.62869 19.7118 7.43365 19.9997 7.29473C20.2877 7.15581 20.6097 7.08608 20.9662 7.08608C21.4385 7.08608 21.8156 7.2092 22.0973 7.45545C22.379 7.70169 22.5199 8.03674 22.5199 8.46058C22.5199 8.72045 22.4701 8.96424 22.3708 9.19223C22.2713 9.42023 22.0807 9.68009 21.7992 9.97183L20.6372 11.1889H22.688L22.6872 11.941Z" fill="#F9475F"/>
<path d="M18 6.00797V4.25564C18 2.45762 19.3432 1 21 1C22.6568 1 24 2.45762 24 4.25564V6.00797" stroke="#F9475F" stroke-width="1.5" stroke-miterlimit="10"/>
</g>
<defs>
<clipPath id="clip0_50_143">
<rect width="10" height="15" fill="white" transform="translate(16)"/>
</clipPath>
</defs>
</svg>
