<svg width="13" height="13" viewBox="0 0 13 13" fill="none" xmlns="http://www.w3.org/2000/svg">
<path fill-rule="evenodd" clip-rule="evenodd" d="M1.75 5.66489C1.75 3.58873 3.43006 1.90771 5.5 1.90771C7.56994 1.90771 9.25 3.58873 9.25 5.66489C9.25 7.74105 7.56994 9.42206 5.5 9.42206C3.43006 9.42206 1.75 7.74105 1.75 5.66489ZM5.5 0.407715C2.59938 0.407715 0.25 2.76256 0.25 5.66489C0.25 8.56722 2.59938 10.9221 5.5 10.9221C6.67947 10.9221 7.7678 10.5327 8.64408 9.87549L11.4692 12.7052C11.7619 12.9983 12.2368 12.9987 12.5299 12.706C12.823 12.4133 12.8234 11.9385 12.5308 11.6453L9.7041 8.81419C10.361 7.93626 10.75 6.8459 10.75 5.66489C10.75 2.76256 8.40062 0.407715 5.5 0.407715Z" fill="black" fill-opacity="0.38"/>
</svg>
